<mxfile host="app.diagrams.net" modified="2022-11-07T10:20:26.130Z" agent="5.0 (Windows NT 10.0; Win64; x64) AppleWebKit/537.36 (KHTML, like Gecko) Chrome/105.0.0.0 Safari/537.36 OPR/91.0.4516.106" etag="qC91TYU75_NHXsAIvMLE" version="20.5.3" type="github">
  <diagram id="Zm2n4_mefB6X2REou1yo" name="Page-1">
    <mxGraphModel dx="2452" dy="926" grid="1" gridSize="10" guides="1" tooltips="1" connect="1" arrows="1" fold="1" page="1" pageScale="1" pageWidth="827" pageHeight="1169" math="0" shadow="0">
      <root>
        <mxCell id="0" />
        <mxCell id="1" parent="0" />
        <mxCell id="Km5KgOMg6tNFVgr9Pe1_-10" style="edgeStyle=orthogonalEdgeStyle;rounded=0;orthogonalLoop=1;jettySize=auto;html=1;entryX=0.5;entryY=0;entryDx=0;entryDy=0;" edge="1" parent="1" source="Km5KgOMg6tNFVgr9Pe1_-1" target="Km5KgOMg6tNFVgr9Pe1_-6">
          <mxGeometry relative="1" as="geometry" />
        </mxCell>
        <mxCell id="Km5KgOMg6tNFVgr9Pe1_-1" value="user" style="swimlane;fontStyle=0;childLayout=stackLayout;horizontal=1;startSize=26;fillColor=none;horizontalStack=0;resizeParent=1;resizeParentMax=0;resizeLast=0;collapsible=1;marginBottom=0;" vertex="1" parent="1">
          <mxGeometry x="190" y="10" width="140" height="182" as="geometry" />
        </mxCell>
        <mxCell id="Km5KgOMg6tNFVgr9Pe1_-2" value="idÂ " style="text;strokeColor=none;fillColor=none;align=left;verticalAlign=top;spacingLeft=4;spacingRight=4;overflow=hidden;rotatable=0;points=[[0,0.5],[1,0.5]];portConstraint=eastwest;" vertex="1" parent="Km5KgOMg6tNFVgr9Pe1_-1">
          <mxGeometry y="26" width="140" height="26" as="geometry" />
        </mxCell>
        <mxCell id="Km5KgOMg6tNFVgr9Pe1_-3" value="name" style="text;strokeColor=none;fillColor=none;align=left;verticalAlign=top;spacingLeft=4;spacingRight=4;overflow=hidden;rotatable=0;points=[[0,0.5],[1,0.5]];portConstraint=eastwest;" vertex="1" parent="Km5KgOMg6tNFVgr9Pe1_-1">
          <mxGeometry y="52" width="140" height="26" as="geometry" />
        </mxCell>
        <mxCell id="Km5KgOMg6tNFVgr9Pe1_-62" value="biography" style="text;strokeColor=none;fillColor=none;align=left;verticalAlign=top;spacingLeft=4;spacingRight=4;overflow=hidden;rotatable=0;points=[[0,0.5],[1,0.5]];portConstraint=eastwest;" vertex="1" parent="Km5KgOMg6tNFVgr9Pe1_-1">
          <mxGeometry y="78" width="140" height="26" as="geometry" />
        </mxCell>
        <mxCell id="Km5KgOMg6tNFVgr9Pe1_-63" value="profile_picture" style="text;strokeColor=none;fillColor=none;align=left;verticalAlign=top;spacingLeft=4;spacingRight=4;overflow=hidden;rotatable=0;points=[[0,0.5],[1,0.5]];portConstraint=eastwest;" vertex="1" parent="Km5KgOMg6tNFVgr9Pe1_-1">
          <mxGeometry y="104" width="140" height="26" as="geometry" />
        </mxCell>
        <mxCell id="Km5KgOMg6tNFVgr9Pe1_-5" value="password" style="text;strokeColor=none;fillColor=none;align=left;verticalAlign=top;spacingLeft=4;spacingRight=4;overflow=hidden;rotatable=0;points=[[0,0.5],[1,0.5]];portConstraint=eastwest;" vertex="1" parent="Km5KgOMg6tNFVgr9Pe1_-1">
          <mxGeometry y="130" width="140" height="26" as="geometry" />
        </mxCell>
        <mxCell id="Km5KgOMg6tNFVgr9Pe1_-30" value="createdAt" style="text;strokeColor=none;fillColor=none;align=left;verticalAlign=top;spacingLeft=4;spacingRight=4;overflow=hidden;rotatable=0;points=[[0,0.5],[1,0.5]];portConstraint=eastwest;" vertex="1" parent="Km5KgOMg6tNFVgr9Pe1_-1">
          <mxGeometry y="156" width="140" height="26" as="geometry" />
        </mxCell>
        <mxCell id="Km5KgOMg6tNFVgr9Pe1_-6" value="user_to_gallerie" style="swimlane;fontStyle=0;childLayout=stackLayout;horizontal=1;startSize=26;fillColor=none;horizontalStack=0;resizeParent=1;resizeParentMax=0;resizeLast=0;collapsible=1;marginBottom=0;" vertex="1" parent="1">
          <mxGeometry x="190" y="220" width="140" height="78" as="geometry" />
        </mxCell>
        <mxCell id="Km5KgOMg6tNFVgr9Pe1_-7" value="id_user" style="text;strokeColor=none;fillColor=none;align=left;verticalAlign=top;spacingLeft=4;spacingRight=4;overflow=hidden;rotatable=0;points=[[0,0.5],[1,0.5]];portConstraint=eastwest;" vertex="1" parent="Km5KgOMg6tNFVgr9Pe1_-6">
          <mxGeometry y="26" width="140" height="26" as="geometry" />
        </mxCell>
        <mxCell id="Km5KgOMg6tNFVgr9Pe1_-8" value="id_gallery" style="text;strokeColor=none;fillColor=none;align=left;verticalAlign=top;spacingLeft=4;spacingRight=4;overflow=hidden;rotatable=0;points=[[0,0.5],[1,0.5]];portConstraint=eastwest;" vertex="1" parent="Km5KgOMg6tNFVgr9Pe1_-6">
          <mxGeometry y="52" width="140" height="26" as="geometry" />
        </mxCell>
        <mxCell id="Km5KgOMg6tNFVgr9Pe1_-17" style="edgeStyle=orthogonalEdgeStyle;rounded=0;orthogonalLoop=1;jettySize=auto;html=1;entryX=0.5;entryY=0.962;entryDx=0;entryDy=0;entryPerimeter=0;" edge="1" parent="1" source="Km5KgOMg6tNFVgr9Pe1_-11" target="Km5KgOMg6tNFVgr9Pe1_-8">
          <mxGeometry relative="1" as="geometry" />
        </mxCell>
        <mxCell id="Km5KgOMg6tNFVgr9Pe1_-86" style="edgeStyle=orthogonalEdgeStyle;rounded=0;orthogonalLoop=1;jettySize=auto;html=1;" edge="1" parent="1" source="Km5KgOMg6tNFVgr9Pe1_-11" target="Km5KgOMg6tNFVgr9Pe1_-79">
          <mxGeometry relative="1" as="geometry" />
        </mxCell>
        <mxCell id="Km5KgOMg6tNFVgr9Pe1_-11" value="gallery" style="swimlane;fontStyle=0;childLayout=stackLayout;horizontal=1;startSize=26;fillColor=none;horizontalStack=0;resizeParent=1;resizeParentMax=0;resizeLast=0;collapsible=1;marginBottom=0;" vertex="1" parent="1">
          <mxGeometry x="190" y="360" width="140" height="182" as="geometry" />
        </mxCell>
        <mxCell id="Km5KgOMg6tNFVgr9Pe1_-12" value="id" style="text;strokeColor=none;fillColor=none;align=left;verticalAlign=top;spacingLeft=4;spacingRight=4;overflow=hidden;rotatable=0;points=[[0,0.5],[1,0.5]];portConstraint=eastwest;" vertex="1" parent="Km5KgOMg6tNFVgr9Pe1_-11">
          <mxGeometry y="26" width="140" height="26" as="geometry" />
        </mxCell>
        <mxCell id="Km5KgOMg6tNFVgr9Pe1_-13" value="name" style="text;strokeColor=none;fillColor=none;align=left;verticalAlign=top;spacingLeft=4;spacingRight=4;overflow=hidden;rotatable=0;points=[[0,0.5],[1,0.5]];portConstraint=eastwest;" vertex="1" parent="Km5KgOMg6tNFVgr9Pe1_-11">
          <mxGeometry y="52" width="140" height="26" as="geometry" />
        </mxCell>
        <mxCell id="Km5KgOMg6tNFVgr9Pe1_-14" value="description" style="text;strokeColor=none;fillColor=none;align=left;verticalAlign=top;spacingLeft=4;spacingRight=4;overflow=hidden;rotatable=0;points=[[0,0.5],[1,0.5]];portConstraint=eastwest;" vertex="1" parent="Km5KgOMg6tNFVgr9Pe1_-11">
          <mxGeometry y="78" width="140" height="26" as="geometry" />
        </mxCell>
        <mxCell id="Km5KgOMg6tNFVgr9Pe1_-15" value="nbPhotos" style="text;strokeColor=none;fillColor=none;align=left;verticalAlign=top;spacingLeft=4;spacingRight=4;overflow=hidden;rotatable=0;points=[[0,0.5],[1,0.5]];portConstraint=eastwest;" vertex="1" parent="Km5KgOMg6tNFVgr9Pe1_-11">
          <mxGeometry y="104" width="140" height="26" as="geometry" />
        </mxCell>
        <mxCell id="Km5KgOMg6tNFVgr9Pe1_-16" value="public" style="text;strokeColor=none;fillColor=none;align=left;verticalAlign=top;spacingLeft=4;spacingRight=4;overflow=hidden;rotatable=0;points=[[0,0.5],[1,0.5]];portConstraint=eastwest;" vertex="1" parent="Km5KgOMg6tNFVgr9Pe1_-11">
          <mxGeometry y="130" width="140" height="26" as="geometry" />
        </mxCell>
        <mxCell id="Km5KgOMg6tNFVgr9Pe1_-29" value="createdAt" style="text;strokeColor=none;fillColor=none;align=left;verticalAlign=top;spacingLeft=4;spacingRight=4;overflow=hidden;rotatable=0;points=[[0,0.5],[1,0.5]];portConstraint=eastwest;" vertex="1" parent="Km5KgOMg6tNFVgr9Pe1_-11">
          <mxGeometry y="156" width="140" height="26" as="geometry" />
        </mxCell>
        <mxCell id="Km5KgOMg6tNFVgr9Pe1_-18" value="gallery_to_picture" style="swimlane;fontStyle=0;childLayout=stackLayout;horizontal=1;startSize=26;fillColor=none;horizontalStack=0;resizeParent=1;resizeParentMax=0;resizeLast=0;collapsible=1;marginBottom=0;" vertex="1" parent="1">
          <mxGeometry x="440" y="360" width="140" height="78" as="geometry" />
        </mxCell>
        <mxCell id="Km5KgOMg6tNFVgr9Pe1_-19" value="id_gallery" style="text;strokeColor=none;fillColor=none;align=left;verticalAlign=top;spacingLeft=4;spacingRight=4;overflow=hidden;rotatable=0;points=[[0,0.5],[1,0.5]];portConstraint=eastwest;" vertex="1" parent="Km5KgOMg6tNFVgr9Pe1_-18">
          <mxGeometry y="26" width="140" height="26" as="geometry" />
        </mxCell>
        <mxCell id="Km5KgOMg6tNFVgr9Pe1_-20" value="id_picture" style="text;strokeColor=none;fillColor=none;align=left;verticalAlign=top;spacingLeft=4;spacingRight=4;overflow=hidden;rotatable=0;points=[[0,0.5],[1,0.5]];portConstraint=eastwest;" vertex="1" parent="Km5KgOMg6tNFVgr9Pe1_-18">
          <mxGeometry y="52" width="140" height="26" as="geometry" />
        </mxCell>
        <mxCell id="Km5KgOMg6tNFVgr9Pe1_-28" style="edgeStyle=orthogonalEdgeStyle;rounded=0;orthogonalLoop=1;jettySize=auto;html=1;entryX=0;entryY=0.5;entryDx=0;entryDy=0;exitX=1;exitY=0.5;exitDx=0;exitDy=0;" edge="1" parent="1" source="Km5KgOMg6tNFVgr9Pe1_-12" target="Km5KgOMg6tNFVgr9Pe1_-19">
          <mxGeometry relative="1" as="geometry" />
        </mxCell>
        <mxCell id="Km5KgOMg6tNFVgr9Pe1_-61" style="edgeStyle=orthogonalEdgeStyle;rounded=0;orthogonalLoop=1;jettySize=auto;html=1;" edge="1" parent="1" source="Km5KgOMg6tNFVgr9Pe1_-31" target="Km5KgOMg6tNFVgr9Pe1_-58">
          <mxGeometry relative="1" as="geometry" />
        </mxCell>
        <mxCell id="Km5KgOMg6tNFVgr9Pe1_-31" value="picture" style="swimlane;fontStyle=0;childLayout=stackLayout;horizontal=1;startSize=26;fillColor=none;horizontalStack=0;resizeParent=1;resizeParentMax=0;resizeLast=0;collapsible=1;marginBottom=0;" vertex="1" parent="1">
          <mxGeometry x="650" y="360" width="140" height="78" as="geometry" />
        </mxCell>
        <mxCell id="Km5KgOMg6tNFVgr9Pe1_-32" value="id" style="text;strokeColor=none;fillColor=none;align=left;verticalAlign=top;spacingLeft=4;spacingRight=4;overflow=hidden;rotatable=0;points=[[0,0.5],[1,0.5]];portConstraint=eastwest;" vertex="1" parent="Km5KgOMg6tNFVgr9Pe1_-31">
          <mxGeometry y="26" width="140" height="26" as="geometry" />
        </mxCell>
        <mxCell id="Km5KgOMg6tNFVgr9Pe1_-33" value="name" style="text;strokeColor=none;fillColor=none;align=left;verticalAlign=top;spacingLeft=4;spacingRight=4;overflow=hidden;rotatable=0;points=[[0,0.5],[1,0.5]];portConstraint=eastwest;" vertex="1" parent="Km5KgOMg6tNFVgr9Pe1_-31">
          <mxGeometry y="52" width="140" height="26" as="geometry" />
        </mxCell>
        <mxCell id="Km5KgOMg6tNFVgr9Pe1_-42" style="edgeStyle=orthogonalEdgeStyle;rounded=0;orthogonalLoop=1;jettySize=auto;html=1;entryX=0;entryY=0.5;entryDx=0;entryDy=0;" edge="1" parent="1" source="Km5KgOMg6tNFVgr9Pe1_-19" target="Km5KgOMg6tNFVgr9Pe1_-32">
          <mxGeometry relative="1" as="geometry" />
        </mxCell>
        <mxCell id="Km5KgOMg6tNFVgr9Pe1_-43" value="picture_to_comment" style="swimlane;fontStyle=0;childLayout=stackLayout;horizontal=1;startSize=26;fillColor=none;horizontalStack=0;resizeParent=1;resizeParentMax=0;resizeLast=0;collapsible=1;marginBottom=0;" vertex="1" parent="1">
          <mxGeometry x="860" y="360" width="140" height="78" as="geometry" />
        </mxCell>
        <mxCell id="Km5KgOMg6tNFVgr9Pe1_-44" value="id_picture" style="text;strokeColor=none;fillColor=none;align=left;verticalAlign=top;spacingLeft=4;spacingRight=4;overflow=hidden;rotatable=0;points=[[0,0.5],[1,0.5]];portConstraint=eastwest;" vertex="1" parent="Km5KgOMg6tNFVgr9Pe1_-43">
          <mxGeometry y="26" width="140" height="26" as="geometry" />
        </mxCell>
        <mxCell id="Km5KgOMg6tNFVgr9Pe1_-45" value="id_comment" style="text;strokeColor=none;fillColor=none;align=left;verticalAlign=top;spacingLeft=4;spacingRight=4;overflow=hidden;rotatable=0;points=[[0,0.5],[1,0.5]];portConstraint=eastwest;" vertex="1" parent="Km5KgOMg6tNFVgr9Pe1_-43">
          <mxGeometry y="52" width="140" height="26" as="geometry" />
        </mxCell>
        <mxCell id="Km5KgOMg6tNFVgr9Pe1_-47" style="edgeStyle=orthogonalEdgeStyle;rounded=0;orthogonalLoop=1;jettySize=auto;html=1;entryX=0;entryY=0.5;entryDx=0;entryDy=0;" edge="1" parent="1" source="Km5KgOMg6tNFVgr9Pe1_-32" target="Km5KgOMg6tNFVgr9Pe1_-44">
          <mxGeometry relative="1" as="geometry" />
        </mxCell>
        <mxCell id="Km5KgOMg6tNFVgr9Pe1_-48" value="comment" style="swimlane;fontStyle=0;childLayout=stackLayout;horizontal=1;startSize=26;fillColor=none;horizontalStack=0;resizeParent=1;resizeParentMax=0;resizeLast=0;collapsible=1;marginBottom=0;" vertex="1" parent="1">
          <mxGeometry x="1090" y="360" width="140" height="104" as="geometry" />
        </mxCell>
        <mxCell id="Km5KgOMg6tNFVgr9Pe1_-49" value="id" style="text;strokeColor=none;fillColor=none;align=left;verticalAlign=top;spacingLeft=4;spacingRight=4;overflow=hidden;rotatable=0;points=[[0,0.5],[1,0.5]];portConstraint=eastwest;" vertex="1" parent="Km5KgOMg6tNFVgr9Pe1_-48">
          <mxGeometry y="26" width="140" height="26" as="geometry" />
        </mxCell>
        <mxCell id="Km5KgOMg6tNFVgr9Pe1_-50" value="id_auteur" style="text;strokeColor=none;fillColor=none;align=left;verticalAlign=top;spacingLeft=4;spacingRight=4;overflow=hidden;rotatable=0;points=[[0,0.5],[1,0.5]];portConstraint=eastwest;" vertex="1" parent="Km5KgOMg6tNFVgr9Pe1_-48">
          <mxGeometry y="52" width="140" height="26" as="geometry" />
        </mxCell>
        <mxCell id="Km5KgOMg6tNFVgr9Pe1_-51" value="content" style="text;strokeColor=none;fillColor=none;align=left;verticalAlign=top;spacingLeft=4;spacingRight=4;overflow=hidden;rotatable=0;points=[[0,0.5],[1,0.5]];portConstraint=eastwest;" vertex="1" parent="Km5KgOMg6tNFVgr9Pe1_-48">
          <mxGeometry y="78" width="140" height="26" as="geometry" />
        </mxCell>
        <mxCell id="Km5KgOMg6tNFVgr9Pe1_-75" style="edgeStyle=orthogonalEdgeStyle;rounded=0;orthogonalLoop=1;jettySize=auto;html=1;" edge="1" parent="1" source="Km5KgOMg6tNFVgr9Pe1_-58" target="Km5KgOMg6tNFVgr9Pe1_-72">
          <mxGeometry relative="1" as="geometry" />
        </mxCell>
        <mxCell id="Km5KgOMg6tNFVgr9Pe1_-58" value="picture_to_metadata" style="swimlane;fontStyle=0;childLayout=stackLayout;horizontal=1;startSize=26;fillColor=none;horizontalStack=0;resizeParent=1;resizeParentMax=0;resizeLast=0;collapsible=1;marginBottom=0;" vertex="1" parent="1">
          <mxGeometry x="650" y="210" width="140" height="78" as="geometry" />
        </mxCell>
        <mxCell id="Km5KgOMg6tNFVgr9Pe1_-59" value="id_metadata" style="text;strokeColor=none;fillColor=none;align=left;verticalAlign=top;spacingLeft=4;spacingRight=4;overflow=hidden;rotatable=0;points=[[0,0.5],[1,0.5]];portConstraint=eastwest;" vertex="1" parent="Km5KgOMg6tNFVgr9Pe1_-58">
          <mxGeometry y="26" width="140" height="26" as="geometry" />
        </mxCell>
        <mxCell id="Km5KgOMg6tNFVgr9Pe1_-60" value="id_picture" style="text;strokeColor=none;fillColor=none;align=left;verticalAlign=top;spacingLeft=4;spacingRight=4;overflow=hidden;rotatable=0;points=[[0,0.5],[1,0.5]];portConstraint=eastwest;" vertex="1" parent="Km5KgOMg6tNFVgr9Pe1_-58">
          <mxGeometry y="52" width="140" height="26" as="geometry" />
        </mxCell>
        <mxCell id="Km5KgOMg6tNFVgr9Pe1_-72" value="metadata" style="swimlane;fontStyle=0;childLayout=stackLayout;horizontal=1;startSize=26;fillColor=none;horizontalStack=0;resizeParent=1;resizeParentMax=0;resizeLast=0;collapsible=1;marginBottom=0;" vertex="1" parent="1">
          <mxGeometry x="650" y="30" width="140" height="104" as="geometry" />
        </mxCell>
        <mxCell id="Km5KgOMg6tNFVgr9Pe1_-73" value="id" style="text;strokeColor=none;fillColor=none;align=left;verticalAlign=top;spacingLeft=4;spacingRight=4;overflow=hidden;rotatable=0;points=[[0,0.5],[1,0.5]];portConstraint=eastwest;" vertex="1" parent="Km5KgOMg6tNFVgr9Pe1_-72">
          <mxGeometry y="26" width="140" height="26" as="geometry" />
        </mxCell>
        <mxCell id="Km5KgOMg6tNFVgr9Pe1_-74" value="nom" style="text;strokeColor=none;fillColor=none;align=left;verticalAlign=top;spacingLeft=4;spacingRight=4;overflow=hidden;rotatable=0;points=[[0,0.5],[1,0.5]];portConstraint=eastwest;" vertex="1" parent="Km5KgOMg6tNFVgr9Pe1_-72">
          <mxGeometry y="52" width="140" height="26" as="geometry" />
        </mxCell>
        <mxCell id="Km5KgOMg6tNFVgr9Pe1_-76" value="value" style="text;strokeColor=none;fillColor=none;align=left;verticalAlign=top;spacingLeft=4;spacingRight=4;overflow=hidden;rotatable=0;points=[[0,0.5],[1,0.5]];portConstraint=eastwest;" vertex="1" parent="Km5KgOMg6tNFVgr9Pe1_-72">
          <mxGeometry y="78" width="140" height="26" as="geometry" />
        </mxCell>
        <mxCell id="Km5KgOMg6tNFVgr9Pe1_-79" value="gallery_to_motcle" style="swimlane;fontStyle=0;childLayout=stackLayout;horizontal=1;startSize=26;fillColor=none;horizontalStack=0;resizeParent=1;resizeParentMax=0;resizeLast=0;collapsible=1;marginBottom=0;" vertex="1" parent="1">
          <mxGeometry x="-60" y="412" width="140" height="78" as="geometry" />
        </mxCell>
        <mxCell id="Km5KgOMg6tNFVgr9Pe1_-80" value="id_gallery" style="text;strokeColor=none;fillColor=none;align=left;verticalAlign=top;spacingLeft=4;spacingRight=4;overflow=hidden;rotatable=0;points=[[0,0.5],[1,0.5]];portConstraint=eastwest;" vertex="1" parent="Km5KgOMg6tNFVgr9Pe1_-79">
          <mxGeometry y="26" width="140" height="26" as="geometry" />
        </mxCell>
        <mxCell id="Km5KgOMg6tNFVgr9Pe1_-87" value="id_keyword" style="text;strokeColor=none;fillColor=none;align=left;verticalAlign=top;spacingLeft=4;spacingRight=4;overflow=hidden;rotatable=0;points=[[0,0.5],[1,0.5]];portConstraint=eastwest;" vertex="1" parent="Km5KgOMg6tNFVgr9Pe1_-79">
          <mxGeometry y="52" width="140" height="26" as="geometry" />
        </mxCell>
        <mxCell id="Km5KgOMg6tNFVgr9Pe1_-88" value="keyword" style="swimlane;fontStyle=0;childLayout=stackLayout;horizontal=1;startSize=26;fillColor=none;horizontalStack=0;resizeParent=1;resizeParentMax=0;resizeLast=0;collapsible=1;marginBottom=0;" vertex="1" parent="1">
          <mxGeometry x="-320" y="412" width="140" height="78" as="geometry" />
        </mxCell>
        <mxCell id="Km5KgOMg6tNFVgr9Pe1_-89" value="id" style="text;strokeColor=none;fillColor=none;align=left;verticalAlign=top;spacingLeft=4;spacingRight=4;overflow=hidden;rotatable=0;points=[[0,0.5],[1,0.5]];portConstraint=eastwest;" vertex="1" parent="Km5KgOMg6tNFVgr9Pe1_-88">
          <mxGeometry y="26" width="140" height="26" as="geometry" />
        </mxCell>
        <mxCell id="Km5KgOMg6tNFVgr9Pe1_-90" value="name" style="text;strokeColor=none;fillColor=none;align=left;verticalAlign=top;spacingLeft=4;spacingRight=4;overflow=hidden;rotatable=0;points=[[0,0.5],[1,0.5]];portConstraint=eastwest;" vertex="1" parent="Km5KgOMg6tNFVgr9Pe1_-88">
          <mxGeometry y="52" width="140" height="26" as="geometry" />
        </mxCell>
        <mxCell id="Km5KgOMg6tNFVgr9Pe1_-92" style="edgeStyle=orthogonalEdgeStyle;rounded=0;orthogonalLoop=1;jettySize=auto;html=1;entryX=1;entryY=0.5;entryDx=0;entryDy=0;" edge="1" parent="1" source="Km5KgOMg6tNFVgr9Pe1_-80" target="Km5KgOMg6tNFVgr9Pe1_-88">
          <mxGeometry relative="1" as="geometry" />
        </mxCell>
        <mxCell id="Km5KgOMg6tNFVgr9Pe1_-93" style="edgeStyle=orthogonalEdgeStyle;rounded=0;orthogonalLoop=1;jettySize=auto;html=1;entryX=0;entryY=0.5;entryDx=0;entryDy=0;" edge="1" parent="1" source="Km5KgOMg6tNFVgr9Pe1_-44" target="Km5KgOMg6tNFVgr9Pe1_-49">
          <mxGeometry relative="1" as="geometry" />
        </mxCell>
      </root>
    </mxGraphModel>
  </diagram>
</mxfile>
